<mxfile host="app.diagrams.net" modified="2023-06-19T06:10:08.683Z" agent="Mozilla/5.0 (Macintosh; Intel Mac OS X 10_15_7) AppleWebKit/605.1.15 (KHTML, like Gecko) Version/16.5 Safari/605.1.15" etag="fQaBrAulmHxUb10HrOef" version="21.5.0" type="github" pages="2">
  <diagram name="第 1 页" id="6fT6JXEwewGPX3J2852l">
    <mxGraphModel dx="1304" dy="1084" grid="1" gridSize="10" guides="1" tooltips="1" connect="1" arrows="1" fold="1" page="1" pageScale="1" pageWidth="1100" pageHeight="850" math="0" shadow="0">
      <root>
        <mxCell id="0" />
        <mxCell id="1" parent="0" />
        <mxCell id="uMZrnSh-fOllgggqiJK_-1" value="login" style="rounded=1;whiteSpace=wrap;html=1;fontSize=20;" parent="1" vertex="1">
          <mxGeometry x="60" y="30" width="220" height="310" as="geometry" />
        </mxCell>
        <mxCell id="uMZrnSh-fOllgggqiJK_-3" value="logo" style="whiteSpace=wrap;html=1;aspect=fixed;fontSize=20;" parent="1" vertex="1">
          <mxGeometry x="120" y="60" width="100" height="100" as="geometry" />
        </mxCell>
        <mxCell id="uMZrnSh-fOllgggqiJK_-4" value="" style="endArrow=none;html=1;rounded=0;entryX=1;entryY=0;entryDx=0;entryDy=0;exitX=0;exitY=1;exitDx=0;exitDy=0;elbow=vertical;fontSize=20;" parent="1" source="uMZrnSh-fOllgggqiJK_-3" target="uMZrnSh-fOllgggqiJK_-3" edge="1">
          <mxGeometry width="50" height="50" relative="1" as="geometry">
            <mxPoint x="405" y="280" as="sourcePoint" />
            <mxPoint x="455" y="230" as="targetPoint" />
          </mxGeometry>
        </mxCell>
        <mxCell id="uMZrnSh-fOllgggqiJK_-5" value="" style="endArrow=none;html=1;rounded=0;entryX=0;entryY=0;entryDx=0;entryDy=0;exitX=1;exitY=1;exitDx=0;exitDy=0;fontSize=20;" parent="1" source="uMZrnSh-fOllgggqiJK_-3" target="uMZrnSh-fOllgggqiJK_-3" edge="1">
          <mxGeometry width="50" height="50" relative="1" as="geometry">
            <mxPoint x="405" y="280" as="sourcePoint" />
            <mxPoint x="455" y="230" as="targetPoint" />
          </mxGeometry>
        </mxCell>
        <mxCell id="uMZrnSh-fOllgggqiJK_-6" value="Warwick account" style="rounded=1;whiteSpace=wrap;html=1;fontSize=20;fillColor=#ffe6cc;strokeColor=#d79b00;" parent="1" vertex="1">
          <mxGeometry x="97.5" y="220" width="145" height="40" as="geometry" />
        </mxCell>
        <mxCell id="uMZrnSh-fOllgggqiJK_-10" value="guest" style="rounded=1;whiteSpace=wrap;html=1;fontSize=20;fillColor=#ffe6cc;strokeColor=#d79b00;" parent="1" vertex="1">
          <mxGeometry x="97.5" y="270" width="145" height="40" as="geometry" />
        </mxCell>
        <mxCell id="uMZrnSh-fOllgggqiJK_-11" value="" style="rounded=1;whiteSpace=wrap;html=1;fontSize=20;" parent="1" vertex="1">
          <mxGeometry x="360" y="30" width="220" height="310" as="geometry" />
        </mxCell>
        <mxCell id="uMZrnSh-fOllgggqiJK_-12" value="email" style="rounded=0;whiteSpace=wrap;html=1;fontSize=20;" parent="1" vertex="1">
          <mxGeometry x="410" y="70" width="120" height="60" as="geometry" />
        </mxCell>
        <mxCell id="uMZrnSh-fOllgggqiJK_-13" value="password" style="rounded=0;whiteSpace=wrap;html=1;fontSize=20;" parent="1" vertex="1">
          <mxGeometry x="410" y="155" width="120" height="60" as="geometry" />
        </mxCell>
        <mxCell id="uMZrnSh-fOllgggqiJK_-14" value="log in" style="rounded=1;whiteSpace=wrap;html=1;fontSize=20;fillColor=#ffe6cc;strokeColor=#d79b00;" parent="1" vertex="1">
          <mxGeometry x="410" y="240" width="120" height="60" as="geometry" />
        </mxCell>
        <mxCell id="uMZrnSh-fOllgggqiJK_-15" value="" style="rounded=1;whiteSpace=wrap;html=1;fontSize=20;" parent="1" vertex="1">
          <mxGeometry x="360" y="395" width="220" height="310" as="geometry" />
        </mxCell>
        <mxCell id="uMZrnSh-fOllgggqiJK_-16" value="first name" style="rounded=0;whiteSpace=wrap;html=1;fontSize=20;" parent="1" vertex="1">
          <mxGeometry x="410" y="410" width="120" height="40" as="geometry" />
        </mxCell>
        <mxCell id="uMZrnSh-fOllgggqiJK_-18" value="last name" style="rounded=0;whiteSpace=wrap;html=1;fontSize=20;" parent="1" vertex="1">
          <mxGeometry x="410" y="470" width="120" height="40" as="geometry" />
        </mxCell>
        <mxCell id="uMZrnSh-fOllgggqiJK_-19" value="email" style="rounded=0;whiteSpace=wrap;html=1;fontSize=20;" parent="1" vertex="1">
          <mxGeometry x="410" y="530" width="120" height="40" as="geometry" />
        </mxCell>
        <mxCell id="uMZrnSh-fOllgggqiJK_-20" value="password" style="rounded=0;whiteSpace=wrap;html=1;fontSize=20;" parent="1" vertex="1">
          <mxGeometry x="410" y="590" width="120" height="40" as="geometry" />
        </mxCell>
        <mxCell id="uMZrnSh-fOllgggqiJK_-21" value="log in" style="rounded=1;whiteSpace=wrap;html=1;fontSize=20;fillColor=#ffe6cc;strokeColor=#d79b00;" parent="1" vertex="1">
          <mxGeometry x="410" y="650" width="120" height="40" as="geometry" />
        </mxCell>
        <mxCell id="uMZrnSh-fOllgggqiJK_-22" value="" style="endArrow=classic;html=1;rounded=0;exitX=1;exitY=0.5;exitDx=0;exitDy=0;entryX=0;entryY=0.25;entryDx=0;entryDy=0;strokeColor=#FF8000;strokeWidth=4;fontSize=20;" parent="1" source="uMZrnSh-fOllgggqiJK_-6" target="uMZrnSh-fOllgggqiJK_-11" edge="1">
          <mxGeometry width="50" height="50" relative="1" as="geometry">
            <mxPoint x="490" y="420" as="sourcePoint" />
            <mxPoint x="540" y="370" as="targetPoint" />
          </mxGeometry>
        </mxCell>
        <mxCell id="uMZrnSh-fOllgggqiJK_-23" value="" style="endArrow=classic;html=1;rounded=0;entryX=0;entryY=0.25;entryDx=0;entryDy=0;strokeColor=#FF8000;strokeWidth=4;exitX=1;exitY=0.5;exitDx=0;exitDy=0;fontSize=20;" parent="1" source="uMZrnSh-fOllgggqiJK_-10" target="uMZrnSh-fOllgggqiJK_-15" edge="1">
          <mxGeometry width="50" height="50" relative="1" as="geometry">
            <mxPoint x="233" y="300" as="sourcePoint" />
            <mxPoint x="370" y="117" as="targetPoint" />
          </mxGeometry>
        </mxCell>
        <mxCell id="uMZrnSh-fOllgggqiJK_-24" value="&lt;font style=&quot;font-size: 20px;&quot;&gt;campus map&lt;/font&gt;" style="rounded=1;whiteSpace=wrap;html=1;fontSize=20;" parent="1" vertex="1">
          <mxGeometry x="670" y="30" width="220" height="310" as="geometry" />
        </mxCell>
        <mxCell id="uMZrnSh-fOllgggqiJK_-84" value="" style="rounded=0;whiteSpace=wrap;html=1;fillColor=#ffe6cc;strokeColor=#d79b00;" parent="1" vertex="1">
          <mxGeometry x="670" y="110" width="220" height="160" as="geometry" />
        </mxCell>
        <mxCell id="uMZrnSh-fOllgggqiJK_-25" value="search bar" style="rounded=1;whiteSpace=wrap;html=1;fontSize=20;fillColor=#ffe6cc;strokeColor=#d79b00;" parent="1" vertex="1">
          <mxGeometry x="690" y="50" width="180" height="25" as="geometry" />
        </mxCell>
        <mxCell id="uMZrnSh-fOllgggqiJK_-27" value="" style="endArrow=none;html=1;rounded=0;entryX=1;entryY=0.25;entryDx=0;entryDy=0;exitX=0;exitY=0.75;exitDx=0;exitDy=0;elbow=vertical;fontSize=20;" parent="1" source="uMZrnSh-fOllgggqiJK_-24" target="uMZrnSh-fOllgggqiJK_-24" edge="1">
          <mxGeometry width="50" height="50" relative="1" as="geometry">
            <mxPoint x="680" y="118" as="sourcePoint" />
            <mxPoint x="900" y="273" as="targetPoint" />
          </mxGeometry>
        </mxCell>
        <mxCell id="uMZrnSh-fOllgggqiJK_-30" value="" style="endArrow=none;html=1;rounded=0;entryX=1;entryY=0.25;entryDx=0;entryDy=0;exitX=0;exitY=0.25;exitDx=0;exitDy=0;fontSize=20;" parent="1" edge="1">
          <mxGeometry width="50" height="50" relative="1" as="geometry">
            <mxPoint x="670" y="269" as="sourcePoint" />
            <mxPoint x="890" y="269" as="targetPoint" />
          </mxGeometry>
        </mxCell>
        <mxCell id="uMZrnSh-fOllgggqiJK_-31" value="" style="endArrow=classic;html=1;rounded=0;exitX=1;exitY=0.5;exitDx=0;exitDy=0;entryX=0;entryY=0.5;entryDx=0;entryDy=0;strokeColor=#FF8000;strokeWidth=4;fontSize=20;" parent="1" source="uMZrnSh-fOllgggqiJK_-14" target="uMZrnSh-fOllgggqiJK_-24" edge="1">
          <mxGeometry width="50" height="50" relative="1" as="geometry">
            <mxPoint x="233" y="300" as="sourcePoint" />
            <mxPoint x="370" y="117" as="targetPoint" />
          </mxGeometry>
        </mxCell>
        <mxCell id="uMZrnSh-fOllgggqiJK_-32" value="" style="endArrow=classic;html=1;rounded=0;exitX=1;exitY=0.5;exitDx=0;exitDy=0;entryX=0;entryY=0.5;entryDx=0;entryDy=0;strokeColor=#FF8000;strokeWidth=4;fontSize=20;" parent="1" source="uMZrnSh-fOllgggqiJK_-21" target="uMZrnSh-fOllgggqiJK_-24" edge="1">
          <mxGeometry width="50" height="50" relative="1" as="geometry">
            <mxPoint x="243" y="310" as="sourcePoint" />
            <mxPoint x="380" y="127" as="targetPoint" />
          </mxGeometry>
        </mxCell>
        <mxCell id="uMZrnSh-fOllgggqiJK_-33" value="&lt;font style=&quot;font-size: 20px;&quot;&gt;campus map&lt;/font&gt;" style="rounded=1;whiteSpace=wrap;html=1;fontSize=20;" parent="1" vertex="1">
          <mxGeometry x="980" y="30" width="220" height="310" as="geometry" />
        </mxCell>
        <mxCell id="uMZrnSh-fOllgggqiJK_-34" value="&lt;font style=&quot;font-size: 20px;&quot;&gt;campus map&lt;/font&gt;" style="rounded=1;whiteSpace=wrap;html=1;fontSize=20;" parent="1" vertex="1">
          <mxGeometry x="980" y="395" width="220" height="310" as="geometry" />
        </mxCell>
        <mxCell id="uMZrnSh-fOllgggqiJK_-35" value="" style="endArrow=none;html=1;rounded=0;entryX=1;entryY=0.75;entryDx=0;entryDy=0;exitX=0;exitY=0.25;exitDx=0;exitDy=0;fontSize=20;" parent="1" edge="1">
          <mxGeometry width="50" height="50" relative="1" as="geometry">
            <mxPoint x="980" y="110" as="sourcePoint" />
            <mxPoint x="1200" y="265" as="targetPoint" />
          </mxGeometry>
        </mxCell>
        <mxCell id="uMZrnSh-fOllgggqiJK_-36" value="" style="endArrow=none;html=1;rounded=0;entryX=1;entryY=0.25;entryDx=0;entryDy=0;exitX=0;exitY=0.75;exitDx=0;exitDy=0;elbow=vertical;fontSize=20;" parent="1" edge="1">
          <mxGeometry width="50" height="50" relative="1" as="geometry">
            <mxPoint x="980" y="265" as="sourcePoint" />
            <mxPoint x="1200" y="110" as="targetPoint" />
          </mxGeometry>
        </mxCell>
        <mxCell id="uMZrnSh-fOllgggqiJK_-37" value="" style="endArrow=none;html=1;rounded=0;entryX=1;entryY=0.25;entryDx=0;entryDy=0;exitX=0;exitY=0.25;exitDx=0;exitDy=0;fontSize=20;" parent="1" edge="1">
          <mxGeometry width="50" height="50" relative="1" as="geometry">
            <mxPoint x="980" y="110" as="sourcePoint" />
            <mxPoint x="1200" y="110" as="targetPoint" />
          </mxGeometry>
        </mxCell>
        <mxCell id="uMZrnSh-fOllgggqiJK_-38" value="" style="endArrow=none;html=1;rounded=0;entryX=1;entryY=0.25;entryDx=0;entryDy=0;exitX=0;exitY=0.25;exitDx=0;exitDy=0;fontSize=20;" parent="1" edge="1">
          <mxGeometry width="50" height="50" relative="1" as="geometry">
            <mxPoint x="980" y="271" as="sourcePoint" />
            <mxPoint x="1200" y="271" as="targetPoint" />
          </mxGeometry>
        </mxCell>
        <mxCell id="uMZrnSh-fOllgggqiJK_-39" value="" style="endArrow=none;html=1;rounded=0;entryX=1;entryY=0.75;entryDx=0;entryDy=0;exitX=0;exitY=0.25;exitDx=0;exitDy=0;fontSize=20;" parent="1" edge="1">
          <mxGeometry width="50" height="50" relative="1" as="geometry">
            <mxPoint x="980" y="470" as="sourcePoint" />
            <mxPoint x="1200" y="625" as="targetPoint" />
          </mxGeometry>
        </mxCell>
        <mxCell id="uMZrnSh-fOllgggqiJK_-40" value="" style="endArrow=none;html=1;rounded=0;entryX=1;entryY=0.25;entryDx=0;entryDy=0;exitX=0;exitY=0.75;exitDx=0;exitDy=0;elbow=vertical;fontSize=20;" parent="1" edge="1">
          <mxGeometry width="50" height="50" relative="1" as="geometry">
            <mxPoint x="980" y="625" as="sourcePoint" />
            <mxPoint x="1200" y="470" as="targetPoint" />
          </mxGeometry>
        </mxCell>
        <mxCell id="uMZrnSh-fOllgggqiJK_-41" value="" style="endArrow=none;html=1;rounded=0;entryX=1;entryY=0.25;entryDx=0;entryDy=0;exitX=0;exitY=0.25;exitDx=0;exitDy=0;fontSize=20;" parent="1" edge="1">
          <mxGeometry width="50" height="50" relative="1" as="geometry">
            <mxPoint x="980" y="470" as="sourcePoint" />
            <mxPoint x="1200" y="470" as="targetPoint" />
          </mxGeometry>
        </mxCell>
        <mxCell id="uMZrnSh-fOllgggqiJK_-42" value="" style="endArrow=none;html=1;rounded=0;entryX=1;entryY=0.25;entryDx=0;entryDy=0;exitX=0;exitY=0.25;exitDx=0;exitDy=0;fontSize=20;" parent="1" edge="1">
          <mxGeometry width="50" height="50" relative="1" as="geometry">
            <mxPoint x="980" y="631" as="sourcePoint" />
            <mxPoint x="1200" y="631" as="targetPoint" />
          </mxGeometry>
        </mxCell>
        <mxCell id="uMZrnSh-fOllgggqiJK_-43" value="" style="endArrow=classic;html=1;rounded=0;exitX=1;exitY=0.5;exitDx=0;exitDy=0;entryX=0;entryY=0.5;entryDx=0;entryDy=0;strokeColor=#FF8000;strokeWidth=4;fontSize=20;" parent="1" source="uMZrnSh-fOllgggqiJK_-25" target="uMZrnSh-fOllgggqiJK_-34" edge="1">
          <mxGeometry width="50" height="50" relative="1" as="geometry">
            <mxPoint x="233" y="300" as="sourcePoint" />
            <mxPoint x="370" y="117" as="targetPoint" />
          </mxGeometry>
        </mxCell>
        <mxCell id="uMZrnSh-fOllgggqiJK_-44" value="" style="endArrow=classic;html=1;rounded=0;exitX=1;exitY=0.5;exitDx=0;exitDy=0;entryX=0;entryY=0.5;entryDx=0;entryDy=0;strokeColor=#FF8000;strokeWidth=4;fontSize=20;" parent="1" source="uMZrnSh-fOllgggqiJK_-25" target="uMZrnSh-fOllgggqiJK_-33" edge="1">
          <mxGeometry width="50" height="50" relative="1" as="geometry">
            <mxPoint x="243" y="310" as="sourcePoint" />
            <mxPoint x="380" y="127" as="targetPoint" />
          </mxGeometry>
        </mxCell>
        <mxCell id="uMZrnSh-fOllgggqiJK_-45" value="&lt;font style=&quot;font-size: 18px;&quot;&gt;buildings/&lt;br&gt;classrooms&lt;/font&gt;" style="text;html=1;align=center;verticalAlign=middle;resizable=0;points=[];autosize=1;strokeColor=none;fillColor=none;" parent="1" vertex="1">
          <mxGeometry x="870" y="130" width="110" height="60" as="geometry" />
        </mxCell>
        <mxCell id="uMZrnSh-fOllgggqiJK_-46" value="&lt;font size=&quot;4&quot;&gt;facilities/&lt;br&gt;services&lt;br&gt;&lt;/font&gt;" style="text;html=1;align=center;verticalAlign=middle;resizable=0;points=[];autosize=1;strokeColor=none;fillColor=none;" parent="1" vertex="1">
          <mxGeometry x="890" y="410" width="90" height="60" as="geometry" />
        </mxCell>
        <mxCell id="uMZrnSh-fOllgggqiJK_-48" value="&lt;font color=&quot;#ff8000&quot; style=&quot;font-size: 18px;&quot;&gt;navigation page&lt;/font&gt;" style="text;html=1;align=center;verticalAlign=middle;resizable=0;points=[];autosize=1;strokeColor=none;fillColor=none;" parent="1" vertex="1">
          <mxGeometry x="1015" y="125" width="150" height="30" as="geometry" />
        </mxCell>
        <mxCell id="uMZrnSh-fOllgggqiJK_-49" value="&lt;font style=&quot;font-size: 18px;&quot; color=&quot;#ff8000&quot;&gt;Services searched are &lt;br&gt;marked on the map&lt;/font&gt;" style="text;html=1;align=center;verticalAlign=middle;resizable=0;points=[];autosize=1;strokeColor=none;fillColor=none;" parent="1" vertex="1">
          <mxGeometry x="990" y="435" width="200" height="60" as="geometry" />
        </mxCell>
        <mxCell id="uMZrnSh-fOllgggqiJK_-51" value="&lt;font style=&quot;font-size: 20px;&quot;&gt;campus map&lt;/font&gt;" style="rounded=1;whiteSpace=wrap;html=1;fontSize=20;" parent="1" vertex="1">
          <mxGeometry x="670" y="720" width="220" height="310" as="geometry" />
        </mxCell>
        <mxCell id="uMZrnSh-fOllgggqiJK_-58" value="&lt;span style=&quot;caret-color: rgb(0, 0, 0); color: rgb(0, 0, 0); font-family: Helvetica; font-size: 20px; font-style: normal; font-variant-caps: normal; font-weight: 400; letter-spacing: normal; text-align: center; text-indent: 0px; text-transform: none; word-spacing: 0px; -webkit-text-stroke-width: 0px; text-decoration: none; float: none; display: inline !important;&quot;&gt;campus map&lt;/span&gt;" style="rounded=0;whiteSpace=wrap;html=1;fillColor=#ffe6cc;strokeColor=#d79b00;" parent="1" vertex="1">
          <mxGeometry x="670" y="800" width="220" height="160" as="geometry" />
        </mxCell>
        <mxCell id="uMZrnSh-fOllgggqiJK_-52" value="search bar" style="rounded=1;whiteSpace=wrap;html=1;fontSize=20;" parent="1" vertex="1">
          <mxGeometry x="690" y="740" width="180" height="25" as="geometry" />
        </mxCell>
        <mxCell id="uMZrnSh-fOllgggqiJK_-59" value="" style="endArrow=none;html=1;rounded=0;entryX=1;entryY=0.25;entryDx=0;entryDy=0;exitX=0;exitY=0.75;exitDx=0;exitDy=0;elbow=vertical;fontSize=20;" parent="1" edge="1">
          <mxGeometry width="50" height="50" relative="1" as="geometry">
            <mxPoint x="670" y="960" as="sourcePoint" />
            <mxPoint x="890" y="805" as="targetPoint" />
          </mxGeometry>
        </mxCell>
        <mxCell id="uMZrnSh-fOllgggqiJK_-60" value="" style="endArrow=none;html=1;rounded=0;entryX=1;entryY=0.75;entryDx=0;entryDy=0;exitX=0;exitY=0.25;exitDx=0;exitDy=0;fontSize=20;" parent="1" edge="1">
          <mxGeometry width="50" height="50" relative="1" as="geometry">
            <mxPoint x="670" y="805" as="sourcePoint" />
            <mxPoint x="890" y="960" as="targetPoint" />
          </mxGeometry>
        </mxCell>
        <mxCell id="uMZrnSh-fOllgggqiJK_-61" value="" style="endArrow=classic;html=1;rounded=0;entryX=0.5;entryY=0;entryDx=0;entryDy=0;strokeColor=#FF8000;strokeWidth=4;fontSize=20;" parent="1" target="uMZrnSh-fOllgggqiJK_-51" edge="1">
          <mxGeometry width="50" height="50" relative="1" as="geometry">
            <mxPoint x="780" y="270" as="sourcePoint" />
            <mxPoint x="680" y="195" as="targetPoint" />
          </mxGeometry>
        </mxCell>
        <mxCell id="uMZrnSh-fOllgggqiJK_-62" value="&lt;font style=&quot;font-size: 18px;&quot;&gt;Click on any building&lt;/font&gt;&lt;font size=&quot;4&quot;&gt;&lt;br&gt;&lt;/font&gt;" style="text;html=1;align=center;verticalAlign=middle;resizable=0;points=[];autosize=1;strokeColor=none;fillColor=none;" parent="1" vertex="1">
          <mxGeometry x="730" y="345" width="190" height="30" as="geometry" />
        </mxCell>
        <mxCell id="uMZrnSh-fOllgggqiJK_-69" value="" style="ellipse;whiteSpace=wrap;html=1;aspect=fixed;fillColor=#FF8000;strokeColor=#d79b00;" parent="1" vertex="1">
          <mxGeometry x="860" y="840" width="20" height="20" as="geometry" />
        </mxCell>
        <mxCell id="uMZrnSh-fOllgggqiJK_-64" value="&lt;div&gt;&lt;font size=&quot;4&quot;&gt;&lt;br&gt;&lt;/font&gt;&lt;/div&gt;" style="shape=callout;whiteSpace=wrap;html=1;perimeter=calloutPerimeter;position2=0.43;size=60;position=0.25;base=30;direction=south;fillColor=#ffe6cc;strokeColor=#d79b00;align=left;" parent="1" vertex="1">
          <mxGeometry x="870" y="730" width="295" height="280" as="geometry" />
        </mxCell>
        <mxCell id="uMZrnSh-fOllgggqiJK_-65" value="&lt;ul style=&quot;border-color: var(--border-color); font-size: 18px;&quot;&gt;&lt;li style=&quot;border-color: var(--border-color);&quot;&gt;location: xxxxxx&lt;br style=&quot;border-color: var(--border-color);&quot;&gt;&lt;/li&gt;&lt;li style=&quot;border-color: var(--border-color);&quot;&gt;&lt;span style=&quot;border-color: var(--border-color);&quot;&gt;postcode: xxxxx&lt;/span&gt;&lt;br style=&quot;border-color: var(--border-color);&quot;&gt;&lt;/li&gt;&lt;li style=&quot;border-color: var(--border-color);&quot;&gt;&lt;span style=&quot;border-color: var(--border-color);&quot;&gt;opening hours:&amp;nbsp;&lt;/span&gt;&lt;span style=&quot;border-color: var(--border-color);&quot;&gt;xxx&lt;/span&gt;&lt;/li&gt;&lt;li&gt;&lt;span style=&quot;&quot;&gt;entry access: yes/no&lt;/span&gt;&lt;br&gt;&lt;/li&gt;&lt;/ul&gt;" style="whiteSpace=wrap;html=1;labelBackgroundColor=none;fillColor=none;align=left;" parent="1" vertex="1">
          <mxGeometry x="935" y="730" width="230" height="160" as="geometry" />
        </mxCell>
        <mxCell id="uMZrnSh-fOllgggqiJK_-66" value="&lt;font style=&quot;font-size: 18px;&quot;&gt;online review chart&lt;/font&gt;" style="rounded=0;whiteSpace=wrap;html=1;fillColor=#ffe6cc;" parent="1" vertex="1">
          <mxGeometry x="935" y="890" width="230" height="60" as="geometry" />
        </mxCell>
        <mxCell id="uMZrnSh-fOllgggqiJK_-67" value="&lt;font style=&quot;font-size: 18px;&quot;&gt;problem report chart&lt;/font&gt;" style="rounded=0;whiteSpace=wrap;html=1;fillColor=#ffe6cc;" parent="1" vertex="1">
          <mxGeometry x="935" y="950" width="230" height="60" as="geometry" />
        </mxCell>
        <mxCell id="uMZrnSh-fOllgggqiJK_-70" value="" style="rounded=1;whiteSpace=wrap;html=1;fontSize=20;" parent="1" vertex="1">
          <mxGeometry x="1280" y="395" width="220" height="310" as="geometry" />
        </mxCell>
        <mxCell id="uMZrnSh-fOllgggqiJK_-71" value="" style="rounded=1;whiteSpace=wrap;html=1;fontSize=20;" parent="1" vertex="1">
          <mxGeometry x="1280" y="720" width="220" height="310" as="geometry" />
        </mxCell>
        <mxCell id="uMZrnSh-fOllgggqiJK_-72" value="" style="endArrow=classic;html=1;rounded=0;exitX=1;exitY=0.5;exitDx=0;exitDy=0;entryX=0;entryY=0.5;entryDx=0;entryDy=0;strokeColor=#FF8000;strokeWidth=4;fontSize=20;" parent="1" source="uMZrnSh-fOllgggqiJK_-66" target="uMZrnSh-fOllgggqiJK_-70" edge="1">
          <mxGeometry width="50" height="50" relative="1" as="geometry">
            <mxPoint x="1240" y="960" as="sourcePoint" />
            <mxPoint x="1255" y="910" as="targetPoint" />
          </mxGeometry>
        </mxCell>
        <mxCell id="uMZrnSh-fOllgggqiJK_-73" value="" style="endArrow=classic;html=1;rounded=0;exitX=1;exitY=0.5;exitDx=0;exitDy=0;entryX=0;entryY=0.5;entryDx=0;entryDy=0;strokeColor=#FF8000;strokeWidth=4;fontSize=20;" parent="1" source="uMZrnSh-fOllgggqiJK_-67" target="uMZrnSh-fOllgggqiJK_-71" edge="1">
          <mxGeometry width="50" height="50" relative="1" as="geometry">
            <mxPoint x="1230" y="1050" as="sourcePoint" />
            <mxPoint x="1235" y="1175" as="targetPoint" />
          </mxGeometry>
        </mxCell>
        <mxCell id="uMZrnSh-fOllgggqiJK_-74" value="&lt;font style=&quot;font-size: 18px;&quot;&gt;1&lt;/font&gt;" style="ellipse;whiteSpace=wrap;html=1;aspect=fixed;fillColor=#ffe6cc;" parent="1" vertex="1">
          <mxGeometry x="80" y="20" width="30" height="30" as="geometry" />
        </mxCell>
        <mxCell id="uMZrnSh-fOllgggqiJK_-75" value="&lt;font style=&quot;font-size: 18px;&quot;&gt;1.1&lt;/font&gt;" style="ellipse;whiteSpace=wrap;html=1;aspect=fixed;fillColor=#ffe6cc;" parent="1" vertex="1">
          <mxGeometry x="370" y="20" width="30" height="30" as="geometry" />
        </mxCell>
        <mxCell id="uMZrnSh-fOllgggqiJK_-76" value="&lt;font style=&quot;font-size: 18px;&quot;&gt;1.2&lt;/font&gt;" style="ellipse;whiteSpace=wrap;html=1;aspect=fixed;fillColor=#ffe6cc;" parent="1" vertex="1">
          <mxGeometry x="370" y="380" width="30" height="30" as="geometry" />
        </mxCell>
        <mxCell id="uMZrnSh-fOllgggqiJK_-77" value="&lt;font style=&quot;font-size: 18px;&quot;&gt;2&lt;/font&gt;" style="ellipse;whiteSpace=wrap;html=1;aspect=fixed;fillColor=#ffe6cc;" parent="1" vertex="1">
          <mxGeometry x="680" y="15" width="30" height="30" as="geometry" />
        </mxCell>
        <mxCell id="uMZrnSh-fOllgggqiJK_-78" value="&lt;font style=&quot;font-size: 18px;&quot;&gt;2.1&lt;/font&gt;" style="ellipse;whiteSpace=wrap;html=1;aspect=fixed;fillColor=#ffe6cc;" parent="1" vertex="1">
          <mxGeometry x="992.5" y="20" width="30" height="30" as="geometry" />
        </mxCell>
        <mxCell id="uMZrnSh-fOllgggqiJK_-79" value="&lt;font style=&quot;font-size: 18px;&quot;&gt;2.2&lt;/font&gt;" style="ellipse;whiteSpace=wrap;html=1;aspect=fixed;fillColor=#ffe6cc;" parent="1" vertex="1">
          <mxGeometry x="992.5" y="380" width="30" height="30" as="geometry" />
        </mxCell>
        <mxCell id="uMZrnSh-fOllgggqiJK_-81" value="&lt;font style=&quot;font-size: 18px;&quot;&gt;3&lt;/font&gt;" style="ellipse;whiteSpace=wrap;html=1;aspect=fixed;fillColor=#ffe6cc;" parent="1" vertex="1">
          <mxGeometry x="680" y="700" width="30" height="30" as="geometry" />
        </mxCell>
        <mxCell id="uMZrnSh-fOllgggqiJK_-82" value="&lt;font style=&quot;font-size: 18px;&quot;&gt;4&lt;/font&gt;" style="ellipse;whiteSpace=wrap;html=1;aspect=fixed;fillColor=#ffe6cc;fontSize=18;" parent="1" vertex="1">
          <mxGeometry x="1300" y="380" width="30" height="30" as="geometry" />
        </mxCell>
        <mxCell id="uMZrnSh-fOllgggqiJK_-83" value="&lt;font style=&quot;font-size: 18px;&quot;&gt;5&lt;/font&gt;" style="ellipse;whiteSpace=wrap;html=1;aspect=fixed;fillColor=#ffe6cc;" parent="1" vertex="1">
          <mxGeometry x="1300" y="710" width="30" height="30" as="geometry" />
        </mxCell>
        <mxCell id="uMZrnSh-fOllgggqiJK_-86" value="" style="endArrow=none;html=1;rounded=0;entryX=1;entryY=0.75;entryDx=0;entryDy=0;exitX=0;exitY=0.25;exitDx=0;exitDy=0;fontSize=20;" parent="1" edge="1">
          <mxGeometry width="50" height="50" relative="1" as="geometry">
            <mxPoint x="670" y="110" as="sourcePoint" />
            <mxPoint x="890" y="265" as="targetPoint" />
          </mxGeometry>
        </mxCell>
        <mxCell id="uMZrnSh-fOllgggqiJK_-88" value="&lt;font style=&quot;font-size: 18px; background-color: rgb(255, 230, 204);&quot;&gt;campus map&lt;/font&gt;" style="edgeLabel;html=1;align=center;verticalAlign=middle;resizable=0;points=[];" parent="uMZrnSh-fOllgggqiJK_-86" vertex="1" connectable="0">
          <mxGeometry x="-0.0622" y="-1" relative="1" as="geometry">
            <mxPoint as="offset" />
          </mxGeometry>
        </mxCell>
        <mxCell id="uMZrnSh-fOllgggqiJK_-90" value="&lt;font style=&quot;font-size: 18px;&quot;&gt;write a review...&lt;/font&gt;" style="rounded=1;whiteSpace=wrap;html=1;fillColor=#ffe6cc;strokeColor=#d79b00;" parent="1" vertex="1">
          <mxGeometry x="1310" y="610" width="160" height="70" as="geometry" />
        </mxCell>
        <mxCell id="uMZrnSh-fOllgggqiJK_-91" value="review 1" style="rounded=0;whiteSpace=wrap;html=1;fontSize=18;" parent="1" vertex="1">
          <mxGeometry x="1310" y="440" width="160" height="50" as="geometry" />
        </mxCell>
        <mxCell id="uMZrnSh-fOllgggqiJK_-93" value="review 2" style="rounded=0;whiteSpace=wrap;html=1;fontSize=18;" parent="1" vertex="1">
          <mxGeometry x="1310" y="495" width="160" height="50" as="geometry" />
        </mxCell>
        <mxCell id="uMZrnSh-fOllgggqiJK_-94" value="review 3" style="rounded=0;whiteSpace=wrap;html=1;fontSize=18;" parent="1" vertex="1">
          <mxGeometry x="1310" y="550" width="160" height="50" as="geometry" />
        </mxCell>
        <mxCell id="uMZrnSh-fOllgggqiJK_-95" value="&lt;font style=&quot;font-size: 18px;&quot;&gt;report a problem...&lt;/font&gt;" style="rounded=1;whiteSpace=wrap;html=1;fillColor=#ffe6cc;strokeColor=#d79b00;" parent="1" vertex="1">
          <mxGeometry x="1310" y="815" width="160" height="70" as="geometry" />
        </mxCell>
        <mxCell id="uMZrnSh-fOllgggqiJK_-98" value="&lt;font style=&quot;font-size: 16px;&quot;&gt;find something wrong ?&lt;/font&gt;" style="text;html=1;align=center;verticalAlign=middle;resizable=0;points=[];autosize=1;strokeColor=none;fillColor=none;" parent="1" vertex="1">
          <mxGeometry x="1300" y="780" width="190" height="30" as="geometry" />
        </mxCell>
        <mxCell id="uMZrnSh-fOllgggqiJK_-100" value="" style="ellipse;whiteSpace=wrap;html=1;aspect=fixed;fillColor=#FF8000;strokeColor=#d79b00;" parent="1" vertex="1">
          <mxGeometry x="1110" y="580" width="20" height="20" as="geometry" />
        </mxCell>
        <mxCell id="uMZrnSh-fOllgggqiJK_-101" value="" style="endArrow=classic;html=1;rounded=0;entryX=0.5;entryY=0;entryDx=0;entryDy=0;strokeColor=#FF8000;strokeWidth=4;fontSize=20;" parent="1" target="uMZrnSh-fOllgggqiJK_-65" edge="1">
          <mxGeometry width="50" height="50" relative="1" as="geometry">
            <mxPoint x="1120" y="590" as="sourcePoint" />
            <mxPoint x="1290" y="560" as="targetPoint" />
          </mxGeometry>
        </mxCell>
      </root>
    </mxGraphModel>
  </diagram>
  <diagram id="yYqSTDh04w5azlZmigE4" name="第 2 页">
    <mxGraphModel dx="621" dy="516" grid="1" gridSize="10" guides="1" tooltips="1" connect="1" arrows="1" fold="1" page="1" pageScale="1" pageWidth="827" pageHeight="1169" math="0" shadow="0">
      <root>
        <mxCell id="0" />
        <mxCell id="1" parent="0" />
        <mxCell id="CjpZJlmCC8DaZbFAlam8-1" value="login" style="rounded=1;whiteSpace=wrap;html=1;fontSize=20;" vertex="1" parent="1">
          <mxGeometry x="230" y="110" width="220" height="310" as="geometry" />
        </mxCell>
        <mxCell id="CjpZJlmCC8DaZbFAlam8-2" value="logo" style="whiteSpace=wrap;html=1;aspect=fixed;fontSize=20;" vertex="1" parent="1">
          <mxGeometry x="290" y="140" width="100" height="100" as="geometry" />
        </mxCell>
        <mxCell id="CjpZJlmCC8DaZbFAlam8-3" value="" style="endArrow=none;html=1;rounded=0;entryX=1;entryY=0;entryDx=0;entryDy=0;exitX=0;exitY=1;exitDx=0;exitDy=0;elbow=vertical;fontSize=20;" edge="1" parent="1" source="CjpZJlmCC8DaZbFAlam8-2" target="CjpZJlmCC8DaZbFAlam8-2">
          <mxGeometry width="50" height="50" relative="1" as="geometry">
            <mxPoint x="575" y="360" as="sourcePoint" />
            <mxPoint x="625" y="310" as="targetPoint" />
          </mxGeometry>
        </mxCell>
        <mxCell id="CjpZJlmCC8DaZbFAlam8-4" value="" style="endArrow=none;html=1;rounded=0;entryX=0;entryY=0;entryDx=0;entryDy=0;exitX=1;exitY=1;exitDx=0;exitDy=0;fontSize=20;" edge="1" parent="1" source="CjpZJlmCC8DaZbFAlam8-2" target="CjpZJlmCC8DaZbFAlam8-2">
          <mxGeometry width="50" height="50" relative="1" as="geometry">
            <mxPoint x="575" y="360" as="sourcePoint" />
            <mxPoint x="625" y="310" as="targetPoint" />
          </mxGeometry>
        </mxCell>
        <mxCell id="CjpZJlmCC8DaZbFAlam8-5" value="&lt;font style=&quot;font-size: 18px;&quot;&gt;Warwick account&lt;/font&gt;" style="rounded=1;whiteSpace=wrap;html=1;fontSize=20;" vertex="1" parent="1">
          <mxGeometry x="267.5" y="300" width="145" height="40" as="geometry" />
        </mxCell>
        <mxCell id="CjpZJlmCC8DaZbFAlam8-6" value="guest" style="rounded=1;whiteSpace=wrap;html=1;fontSize=20;" vertex="1" parent="1">
          <mxGeometry x="267.5" y="350" width="145" height="40" as="geometry" />
        </mxCell>
        <mxCell id="CjpZJlmCC8DaZbFAlam8-7" value="&lt;font style=&quot;font-size: 18px;&quot;&gt;1&lt;/font&gt;" style="ellipse;whiteSpace=wrap;html=1;aspect=fixed;fillColor=#ffe6cc;" vertex="1" parent="1">
          <mxGeometry x="250" y="95" width="30" height="30" as="geometry" />
        </mxCell>
        <mxCell id="CjpZJlmCC8DaZbFAlam8-8" value="&lt;span style=&quot;background-color: rgb(255, 206, 159);&quot;&gt;login as administrator&lt;/span&gt;" style="text;html=1;align=center;verticalAlign=middle;resizable=0;points=[];autosize=1;strokeColor=none;fillColor=none;" vertex="1" parent="1">
          <mxGeometry x="270" y="390" width="140" height="30" as="geometry" />
        </mxCell>
        <mxCell id="p7U6xAuwEtlEwpLEkpxT-1" value="" style="rounded=1;whiteSpace=wrap;html=1;fontSize=20;" vertex="1" parent="1">
          <mxGeometry x="100" y="504.91999999999996" width="220" height="310" as="geometry" />
        </mxCell>
        <mxCell id="p7U6xAuwEtlEwpLEkpxT-2" value="email" style="rounded=0;whiteSpace=wrap;html=1;fontSize=20;" vertex="1" parent="1">
          <mxGeometry x="157.5" y="544.92" width="120" height="60" as="geometry" />
        </mxCell>
        <mxCell id="p7U6xAuwEtlEwpLEkpxT-3" value="password" style="rounded=0;whiteSpace=wrap;html=1;fontSize=20;" vertex="1" parent="1">
          <mxGeometry x="157.5" y="629.92" width="120" height="60" as="geometry" />
        </mxCell>
        <mxCell id="p7U6xAuwEtlEwpLEkpxT-4" value="log in" style="rounded=1;whiteSpace=wrap;html=1;fontSize=20;fillColor=#ffe6cc;strokeColor=#d79b00;" vertex="1" parent="1">
          <mxGeometry x="157.5" y="714.92" width="120" height="60" as="geometry" />
        </mxCell>
        <mxCell id="p7U6xAuwEtlEwpLEkpxT-5" value="&lt;font style=&quot;font-size: 18px;&quot;&gt;1.1&lt;/font&gt;" style="ellipse;whiteSpace=wrap;html=1;aspect=fixed;fillColor=#ffe6cc;" vertex="1" parent="1">
          <mxGeometry x="117.5" y="494.91999999999996" width="30" height="30" as="geometry" />
        </mxCell>
        <mxCell id="Eh0S--bbewG5URKLSGxz-1" value="" style="rounded=1;whiteSpace=wrap;html=1;fontSize=18;" vertex="1" parent="1">
          <mxGeometry x="370" y="517.42" width="220" height="310" as="geometry" />
        </mxCell>
        <mxCell id="Eh0S--bbewG5URKLSGxz-5" value="&lt;font style=&quot;font-size: 18px;&quot;&gt;2&lt;/font&gt;" style="ellipse;whiteSpace=wrap;html=1;aspect=fixed;fillColor=#ffe6cc;" vertex="1" parent="1">
          <mxGeometry x="380" y="507.41999999999996" width="30" height="30" as="geometry" />
        </mxCell>
        <mxCell id="Eh0S--bbewG5URKLSGxz-7" value="Homepage" style="text;html=1;align=center;verticalAlign=middle;resizable=0;points=[];autosize=1;strokeColor=none;fillColor=none;fontSize=18;" vertex="1" parent="1">
          <mxGeometry x="425" y="527.42" width="110" height="30" as="geometry" />
        </mxCell>
        <mxCell id="Eh0S--bbewG5URKLSGxz-8" value="user management" style="rounded=1;whiteSpace=wrap;html=1;fontSize=17;" vertex="1" parent="1">
          <mxGeometry x="400" y="557.42" width="170" height="30" as="geometry" />
        </mxCell>
        <mxCell id="Eh0S--bbewG5URKLSGxz-9" value="building and service management&amp;nbsp;" style="rounded=1;whiteSpace=wrap;html=1;fontSize=17;" vertex="1" parent="1">
          <mxGeometry x="400" y="597.42" width="170" height="40" as="geometry" />
        </mxCell>
        <mxCell id="Eh0S--bbewG5URKLSGxz-10" value="review and content moderation" style="rounded=1;whiteSpace=wrap;html=1;fontSize=17;" vertex="1" parent="1">
          <mxGeometry x="400" y="647.42" width="170" height="40" as="geometry" />
        </mxCell>
        <mxCell id="Eh0S--bbewG5URKLSGxz-11" value="system configuration and maintenance" style="rounded=1;whiteSpace=wrap;html=1;fontSize=17;" vertex="1" parent="1">
          <mxGeometry x="400" y="697.42" width="170" height="50" as="geometry" />
        </mxCell>
        <mxCell id="Eh0S--bbewG5URKLSGxz-13" value="security and access control" style="rounded=1;whiteSpace=wrap;html=1;fontSize=17;" vertex="1" parent="1">
          <mxGeometry x="400" y="757.42" width="170" height="50" as="geometry" />
        </mxCell>
        <mxCell id="Eh0S--bbewG5URKLSGxz-16" value="" style="rounded=1;whiteSpace=wrap;html=1;fontSize=20;" vertex="1" parent="1">
          <mxGeometry x="780" y="177.41999999999996" width="220" height="310" as="geometry" />
        </mxCell>
        <mxCell id="Eh0S--bbewG5URKLSGxz-17" value="" style="rounded=1;whiteSpace=wrap;html=1;fontSize=20;" vertex="1" parent="1">
          <mxGeometry x="840" y="509.91999999999996" width="220" height="310" as="geometry" />
        </mxCell>
        <mxCell id="Eh0S--bbewG5URKLSGxz-18" value="" style="rounded=1;whiteSpace=wrap;html=1;fontSize=20;" vertex="1" parent="1">
          <mxGeometry x="780" y="847.42" width="220" height="310" as="geometry" />
        </mxCell>
        <mxCell id="Eh0S--bbewG5URKLSGxz-19" value="" style="rounded=1;whiteSpace=wrap;html=1;fontSize=20;" vertex="1" parent="1">
          <mxGeometry x="480" y="880" width="220" height="310" as="geometry" />
        </mxCell>
        <mxCell id="Eh0S--bbewG5URKLSGxz-20" value="" style="rounded=1;whiteSpace=wrap;html=1;fontSize=20;" vertex="1" parent="1">
          <mxGeometry x="500" y="109.99999999999997" width="220" height="310" as="geometry" />
        </mxCell>
        <mxCell id="Eh0S--bbewG5URKLSGxz-21" value="&lt;font size=&quot;4&quot;&gt;3&lt;/font&gt;" style="ellipse;whiteSpace=wrap;html=1;aspect=fixed;fillColor=#ffe6cc;" vertex="1" parent="1">
          <mxGeometry x="510" y="95" width="30" height="30" as="geometry" />
        </mxCell>
        <mxCell id="Eh0S--bbewG5URKLSGxz-22" value="&lt;font style=&quot;font-size: 18px;&quot;&gt;4&lt;/font&gt;" style="ellipse;whiteSpace=wrap;html=1;aspect=fixed;fillColor=#ffe6cc;fontSize=18;" vertex="1" parent="1">
          <mxGeometry x="790" y="162.42000000000002" width="30" height="30" as="geometry" />
        </mxCell>
        <mxCell id="Eh0S--bbewG5URKLSGxz-23" value="&lt;font style=&quot;font-size: 18px;&quot;&gt;5&lt;/font&gt;" style="ellipse;whiteSpace=wrap;html=1;aspect=fixed;fillColor=#ffe6cc;" vertex="1" parent="1">
          <mxGeometry x="860" y="499.92" width="30" height="30" as="geometry" />
        </mxCell>
        <mxCell id="Eh0S--bbewG5URKLSGxz-24" value="&lt;font style=&quot;font-size: 18px;&quot;&gt;7&lt;/font&gt;" style="ellipse;whiteSpace=wrap;html=1;aspect=fixed;fillColor=#ffe6cc;" vertex="1" parent="1">
          <mxGeometry x="500" y="870" width="30" height="30" as="geometry" />
        </mxCell>
        <mxCell id="Eh0S--bbewG5URKLSGxz-25" value="&lt;font style=&quot;font-size: 18px;&quot;&gt;6&lt;/font&gt;" style="ellipse;whiteSpace=wrap;html=1;aspect=fixed;fillColor=#ffe6cc;" vertex="1" parent="1">
          <mxGeometry x="800" y="837.42" width="30" height="30" as="geometry" />
        </mxCell>
        <mxCell id="Eh0S--bbewG5URKLSGxz-26" value="&lt;span style=&quot;caret-color: rgb(0, 0, 0); color: rgb(0, 0, 0); font-family: Helvetica; font-size: 18px; font-style: normal; font-variant-caps: normal; font-weight: 400; letter-spacing: normal; text-align: center; text-indent: 0px; text-transform: none; word-spacing: 0px; -webkit-text-stroke-width: 0px; background-color: rgb(251, 251, 251); text-decoration: none; float: none; display: inline !important;&quot;&gt;user management&lt;/span&gt;" style="text;whiteSpace=wrap;html=1;" vertex="1" parent="1">
          <mxGeometry x="530" y="124.99999999999997" width="180" height="40" as="geometry" />
        </mxCell>
        <mxCell id="Eh0S--bbewG5URKLSGxz-27" value="&lt;span style=&quot;caret-color: rgb(0, 0, 0); color: rgb(0, 0, 0); font-family: Helvetica; font-size: 18px; font-style: normal; font-variant-caps: normal; font-weight: 400; letter-spacing: normal; text-indent: 0px; text-transform: none; word-spacing: 0px; -webkit-text-stroke-width: 0px; background-color: rgb(251, 251, 251); text-decoration: none; float: none; display: inline !important;&quot;&gt;building and service management&amp;nbsp;&lt;/span&gt;" style="text;whiteSpace=wrap;html=1;align=center;fontSize=18;" vertex="1" parent="1">
          <mxGeometry x="795" y="192.41999999999996" width="190" height="40" as="geometry" />
        </mxCell>
        <mxCell id="Eh0S--bbewG5URKLSGxz-28" value="&lt;span style=&quot;caret-color: rgb(0, 0, 0); color: rgb(0, 0, 0); font-family: Helvetica; font-size: 18px; font-style: normal; font-variant-caps: normal; font-weight: 400; letter-spacing: normal; text-indent: 0px; text-transform: none; word-spacing: 0px; -webkit-text-stroke-width: 0px; background-color: rgb(251, 251, 251); text-decoration: none; float: none; display: inline !important;&quot;&gt;review and content moderation&lt;/span&gt;" style="text;whiteSpace=wrap;html=1;align=center;" vertex="1" parent="1">
          <mxGeometry x="855" y="534.92" width="190" height="40" as="geometry" />
        </mxCell>
        <mxCell id="Eh0S--bbewG5URKLSGxz-29" value="&lt;span style=&quot;caret-color: rgb(0, 0, 0); color: rgb(0, 0, 0); font-family: Helvetica; font-size: 18px; font-style: normal; font-variant-caps: normal; font-weight: 400; letter-spacing: normal; text-indent: 0px; text-transform: none; word-spacing: 0px; -webkit-text-stroke-width: 0px; background-color: rgb(251, 251, 251); text-decoration: none; float: none; display: inline !important;&quot;&gt;system configuration and maintenance&lt;/span&gt;" style="text;whiteSpace=wrap;html=1;align=center;" vertex="1" parent="1">
          <mxGeometry x="805" y="867.42" width="180" height="40" as="geometry" />
        </mxCell>
        <mxCell id="Eh0S--bbewG5URKLSGxz-30" value="&lt;span style=&quot;caret-color: rgb(0, 0, 0); color: rgb(0, 0, 0); font-family: Helvetica; font-size: 18px; font-style: normal; font-variant-caps: normal; font-weight: 400; letter-spacing: normal; text-indent: 0px; text-transform: none; word-spacing: 0px; -webkit-text-stroke-width: 0px; background-color: rgb(251, 251, 251); text-decoration: none; float: none; display: inline !important;&quot;&gt;security and access control&lt;/span&gt;" style="text;whiteSpace=wrap;html=1;align=center;" vertex="1" parent="1">
          <mxGeometry x="510" y="900" width="160" height="40" as="geometry" />
        </mxCell>
        <mxCell id="QTBW07l9DoQ-zZSwIaNG-1" value="" style="endArrow=classic;html=1;rounded=0;strokeColor=#FF8000;strokeWidth=4;fontSize=20;entryX=0.5;entryY=0;entryDx=0;entryDy=0;exitX=0.501;exitY=1.006;exitDx=0;exitDy=0;exitPerimeter=0;" edge="1" parent="1" source="CjpZJlmCC8DaZbFAlam8-8" target="p7U6xAuwEtlEwpLEkpxT-1">
          <mxGeometry width="50" height="50" relative="1" as="geometry">
            <mxPoint x="170" y="420" as="sourcePoint" />
            <mxPoint x="160" y="510" as="targetPoint" />
          </mxGeometry>
        </mxCell>
        <mxCell id="QTBW07l9DoQ-zZSwIaNG-2" value="" style="endArrow=classic;html=1;rounded=0;entryX=0;entryY=0.5;entryDx=0;entryDy=0;strokeColor=#FF8000;strokeWidth=4;exitX=1;exitY=0.5;exitDx=0;exitDy=0;fontSize=20;" edge="1" parent="1" source="p7U6xAuwEtlEwpLEkpxT-4" target="Eh0S--bbewG5URKLSGxz-1">
          <mxGeometry width="50" height="50" relative="1" as="geometry">
            <mxPoint x="253" y="300" as="sourcePoint" />
            <mxPoint x="370" y="483" as="targetPoint" />
          </mxGeometry>
        </mxCell>
        <mxCell id="QTBW07l9DoQ-zZSwIaNG-3" value="" style="endArrow=classic;html=1;rounded=0;entryX=0;entryY=0.5;entryDx=0;entryDy=0;strokeColor=#FF8000;strokeWidth=4;exitX=1;exitY=0.5;exitDx=0;exitDy=0;fontSize=20;" edge="1" parent="1" source="Eh0S--bbewG5URKLSGxz-8" target="Eh0S--bbewG5URKLSGxz-20">
          <mxGeometry width="50" height="50" relative="1" as="geometry">
            <mxPoint x="283" y="539.92" as="sourcePoint" />
            <mxPoint x="400" y="722.92" as="targetPoint" />
          </mxGeometry>
        </mxCell>
        <mxCell id="QTBW07l9DoQ-zZSwIaNG-4" value="" style="endArrow=classic;html=1;rounded=0;entryX=0;entryY=0.5;entryDx=0;entryDy=0;strokeColor=#FF8000;strokeWidth=4;exitX=1;exitY=0.5;exitDx=0;exitDy=0;fontSize=20;" edge="1" parent="1" source="Eh0S--bbewG5URKLSGxz-9" target="Eh0S--bbewG5URKLSGxz-16">
          <mxGeometry width="50" height="50" relative="1" as="geometry">
            <mxPoint x="293" y="549.92" as="sourcePoint" />
            <mxPoint x="410" y="732.92" as="targetPoint" />
          </mxGeometry>
        </mxCell>
        <mxCell id="QTBW07l9DoQ-zZSwIaNG-5" value="" style="endArrow=classic;html=1;rounded=0;entryX=0;entryY=0.5;entryDx=0;entryDy=0;strokeColor=#FF8000;strokeWidth=4;exitX=1;exitY=0.5;exitDx=0;exitDy=0;fontSize=20;" edge="1" parent="1" source="Eh0S--bbewG5URKLSGxz-10" target="Eh0S--bbewG5URKLSGxz-17">
          <mxGeometry width="50" height="50" relative="1" as="geometry">
            <mxPoint x="303" y="559.92" as="sourcePoint" />
            <mxPoint x="420" y="742.92" as="targetPoint" />
          </mxGeometry>
        </mxCell>
        <mxCell id="QTBW07l9DoQ-zZSwIaNG-6" value="" style="endArrow=classic;html=1;rounded=0;entryX=0;entryY=0.5;entryDx=0;entryDy=0;strokeColor=#FF8000;strokeWidth=4;exitX=1;exitY=0.5;exitDx=0;exitDy=0;fontSize=20;" edge="1" parent="1" source="Eh0S--bbewG5URKLSGxz-11" target="Eh0S--bbewG5URKLSGxz-18">
          <mxGeometry width="50" height="50" relative="1" as="geometry">
            <mxPoint x="313" y="569.92" as="sourcePoint" />
            <mxPoint x="430" y="752.92" as="targetPoint" />
          </mxGeometry>
        </mxCell>
        <mxCell id="QTBW07l9DoQ-zZSwIaNG-7" value="" style="endArrow=classic;html=1;rounded=0;entryX=0.5;entryY=0;entryDx=0;entryDy=0;strokeColor=#FF8000;strokeWidth=4;exitX=1;exitY=0.5;exitDx=0;exitDy=0;fontSize=20;" edge="1" parent="1" source="Eh0S--bbewG5URKLSGxz-13" target="Eh0S--bbewG5URKLSGxz-30">
          <mxGeometry width="50" height="50" relative="1" as="geometry">
            <mxPoint x="323" y="579.92" as="sourcePoint" />
            <mxPoint x="440" y="762.92" as="targetPoint" />
          </mxGeometry>
        </mxCell>
        <mxCell id="QTBW07l9DoQ-zZSwIaNG-8" value="add" style="rounded=1;whiteSpace=wrap;html=1;fontSize=18;" vertex="1" parent="1">
          <mxGeometry x="535" y="182" width="145" height="38" as="geometry" />
        </mxCell>
        <mxCell id="QTBW07l9DoQ-zZSwIaNG-9" value="delete" style="rounded=1;whiteSpace=wrap;html=1;fontSize=18;" vertex="1" parent="1">
          <mxGeometry x="535" y="232.42000000000002" width="145" height="38" as="geometry" />
        </mxCell>
        <mxCell id="QTBW07l9DoQ-zZSwIaNG-12" value="modify" style="rounded=1;whiteSpace=wrap;html=1;fontSize=18;" vertex="1" parent="1">
          <mxGeometry x="535" y="290" width="145" height="38" as="geometry" />
        </mxCell>
        <mxCell id="QTBW07l9DoQ-zZSwIaNG-13" value="add" style="rounded=1;whiteSpace=wrap;html=1;fontSize=18;" vertex="1" parent="1">
          <mxGeometry x="817.5" y="259.42" width="145" height="38" as="geometry" />
        </mxCell>
        <mxCell id="QTBW07l9DoQ-zZSwIaNG-14" value="delete" style="rounded=1;whiteSpace=wrap;html=1;fontSize=18;" vertex="1" parent="1">
          <mxGeometry x="817.5" y="309.84000000000003" width="145" height="38" as="geometry" />
        </mxCell>
        <mxCell id="QTBW07l9DoQ-zZSwIaNG-15" value="modify" style="rounded=1;whiteSpace=wrap;html=1;fontSize=18;" vertex="1" parent="1">
          <mxGeometry x="817.5" y="367.42" width="145" height="38" as="geometry" />
        </mxCell>
        <mxCell id="QTBW07l9DoQ-zZSwIaNG-16" value="reviews to be verified" style="rounded=1;whiteSpace=wrap;html=1;fontSize=18;" vertex="1" parent="1">
          <mxGeometry x="877.5" y="599.4200000000001" width="150" height="45" as="geometry" />
        </mxCell>
        <mxCell id="QTBW07l9DoQ-zZSwIaNG-17" value="&lt;div style=&quot;font-size: 18px;&quot;&gt;approved reviews&lt;/div&gt;" style="rounded=1;whiteSpace=wrap;html=1;fontSize=18;" vertex="1" parent="1">
          <mxGeometry x="878" y="653" width="150" height="45" as="geometry" />
        </mxCell>
        <mxCell id="QTBW07l9DoQ-zZSwIaNG-18" value="unusual accounts" style="rounded=1;whiteSpace=wrap;html=1;fontSize=18;" vertex="1" parent="1">
          <mxGeometry x="877.5" y="707.4200000000001" width="150" height="45" as="geometry" />
        </mxCell>
        <mxCell id="QTBW07l9DoQ-zZSwIaNG-19" value="access to databases" style="rounded=1;whiteSpace=wrap;html=1;labelBackgroundColor=default;fontSize=16;" vertex="1" parent="1">
          <mxGeometry x="815" y="930" width="155" height="40" as="geometry" />
        </mxCell>
        <mxCell id="QTBW07l9DoQ-zZSwIaNG-20" value="backup databases" style="rounded=1;whiteSpace=wrap;html=1;labelBackgroundColor=default;fontSize=16;" vertex="1" parent="1">
          <mxGeometry x="815" y="987" width="155" height="40" as="geometry" />
        </mxCell>
        <mxCell id="QTBW07l9DoQ-zZSwIaNG-21" value="problem reported" style="rounded=1;whiteSpace=wrap;html=1;labelBackgroundColor=default;fontSize=16;" vertex="1" parent="1">
          <mxGeometry x="815" y="1043" width="155" height="40" as="geometry" />
        </mxCell>
        <mxCell id="QTBW07l9DoQ-zZSwIaNG-23" value="web framework" style="rounded=1;whiteSpace=wrap;html=1;labelBackgroundColor=default;fontSize=16;" vertex="1" parent="1">
          <mxGeometry x="815" y="1100" width="155" height="40" as="geometry" />
        </mxCell>
        <mxCell id="QTBW07l9DoQ-zZSwIaNG-24" value="firewall" style="rounded=1;whiteSpace=wrap;html=1;labelBackgroundColor=default;fontSize=16;aspect=fixed;" vertex="1" parent="1">
          <mxGeometry x="515" y="970" width="155" height="40" as="geometry" />
        </mxCell>
        <mxCell id="QTBW07l9DoQ-zZSwIaNG-25" value="SSL certificates" style="rounded=1;whiteSpace=wrap;html=1;labelBackgroundColor=default;fontSize=16;aspect=fixed;" vertex="1" parent="1">
          <mxGeometry x="513" y="1026" width="155" height="40" as="geometry" />
        </mxCell>
        <mxCell id="QTBW07l9DoQ-zZSwIaNG-26" value="unusual accounts" style="rounded=1;whiteSpace=wrap;html=1;fontSize=16;aspect=fixed;" vertex="1" parent="1">
          <mxGeometry x="510" y="1083" width="155" height="37" as="geometry" />
        </mxCell>
      </root>
    </mxGraphModel>
  </diagram>
</mxfile>
